<svg xmlns="http://www.w3.org/2000/svg" width="430" height="430" style="width:100%;height:100%;transform:translate3d(0,0,0);content-visibility:visible" viewBox="0 0 430 430"><defs><clipPath id="f"><path d="M0 0h430v430H0z"/></clipPath><clipPath id="p"><path d="M0 0h430v430H0z"/></clipPath><clipPath id="n"><path d="M0 0h430v430H0z"/></clipPath><clipPath id="j"><path d="M0 0h430v430H0z"/></clipPath><clipPath id="l"><path d="M0 0h430v430H0z"/></clipPath><clipPath id="g"><path d="M0 0h430v430H0z"/></clipPath><clipPath id="h"><path d="M0 0h430v430H0z"/></clipPath><mask id="o" mask-type="alpha"><use xmlns:a0="http://www.w3.org/1999/xlink" a0:href="#a"/></mask><mask id="m" mask-type="alpha"><g filter="url(#b)"><path fill="#fff" d="M0 0h430v430H0z" opacity="0"/><use xmlns:a1="http://www.w3.org/1999/xlink" a1:href="#c"/></g></mask><mask id="i" mask-type="alpha"><g filter="url(#d)"><path fill="#fff" d="M0 0h430v430H0z" opacity="0"/><use xmlns:a2="http://www.w3.org/1999/xlink" a2:href="#e"/></g></mask><filter id="b" width="100%" height="100%" x="0%" y="0%" filterUnits="objectBoundingBox"><feComponentTransfer in="SourceGraphic"><feFuncA tableValues="1.0 0.0" type="table"/></feComponentTransfer></filter><filter id="d" width="100%" height="100%" x="0%" y="0%" filterUnits="objectBoundingBox"><feComponentTransfer in="SourceGraphic"><feFuncA tableValues="1.0 0.0" type="table"/></feComponentTransfer></filter><path id="c" fill-opacity="0" stroke-linecap="round" stroke-linejoin="round" style="display:none"/><path id="e" fill-opacity="0" stroke-linecap="round" stroke-linejoin="round" style="display:none"/><g id="a" opacity="1" style="mix-blend-mode:multiply;display:block"><path fill="#3A3347" d="M86.656 130.57v210.377H57.712a3.36 3.36 0 0 1-3.36-3.36V133.93a3.36 3.36 0 0 1 3.36-3.36z"/><path fill-opacity="0" stroke="#3A3347" stroke-width=".96" d="M86.656 130.57v210.377H57.712a3.36 3.36 0 0 1-3.36-3.36V133.93a3.36 3.36 0 0 1 3.36-3.36z"/></g></defs><g clip-path="url(#f)"><g clip-path="url(#g)" style="display:none"><g clip-path="url(#h)" mask="url(#i)" style="display:none"><path class="tertiary" style="display:none"/><path class="tertiary" style="mix-blend-mode:multiply;display:none"/><g style="display:none"><path class="primary"/><path fill="none" class="primary"/></g><path class="primary" style="mix-blend-mode:multiply;display:none"/><g style="display:none"><path class="primary"/><path fill="none" class="primary"/></g><g style="mix-blend-mode:multiply;display:none"><path class="primary"/><path fill="none" class="primary"/></g><path class="quinary" style="display:none"/><path class="quinary" style="display:none"/><path class="quaternary" style="display:none"/><path class="quaternary" style="mix-blend-mode:multiply;display:none"/><g style="display:none"><path class="secondary"/><path fill="none" class="secondary"/></g><g style="mix-blend-mode:multiply;display:none"><path class="primary"/><path fill="none" class="primary"/></g></g><path fill="none" class="senary" style="display:none"/></g><g clip-path="url(#j)" style="display:none"><g clip-path="url(#l)" mask="url(#m)" style="display:none"><path class="tertiary" style="display:none"/><path class="tertiary" style="mix-blend-mode:multiply;display:none"/><g style="display:none"><path class="primary"/><path fill="none" class="primary"/></g><path class="primary" style="mix-blend-mode:multiply;display:none"/><g style="display:none"><path class="primary"/><path fill="none" class="primary"/></g><g style="mix-blend-mode:multiply;display:none"><path class="primary"/><path fill="none" class="primary"/></g><path class="quinary" style="display:none"/><path class="quinary" style="display:none"/><path class="quaternary" style="display:none"/><path class="quaternary" style="mix-blend-mode:multiply;display:none"/><g style="display:none"><path class="secondary"/><path fill="none" class="secondary"/></g><g style="mix-blend-mode:multiply;display:none"><path class="primary"/><path fill="none" class="primary"/></g></g><path fill="none" class="senary" style="display:none"/></g><g clip-path="url(#n)" style="display:block"><path fill="#FFC638" d="M10.119-16.825h-26.944a3.5 3.5 0 0 0-3.5 3.5v26.65a3.5 3.5 0 0 0 3.5 3.5h26.944a3.5 3.5 0 0 0 3.5-3.5v-26.65a3.5 3.5 0 0 0-3.5-3.5" class="tertiary" style="display:block" transform="matrix(.96 0 0 .96 107.657 118.864)"/><g opacity=".5"><path fill="#FFC638" d="M-6.66-16.825h16.82v33.65H-6.66a3.5 3.5 0 0 1-3.5-3.5v-26.65a3.5 3.5 0 0 1 3.5-3.5" class="tertiary" opacity="1" style="mix-blend-mode:multiply;display:block" transform="matrix(.96 0 0 .96 97.49 118.864)"/></g><g style="display:block"><path fill="#393346" d="M275.125 129.73h97.754a3.36 3.36 0 0 1 3.36 3.36v205.594a3.36 3.36 0 0 1-3.36 3.36H57.372a3.36 3.36 0 0 1-3.36-3.36V133.09a3.36 3.36 0 0 1 3.36-3.36h94.89l15.783-39.448a3.35 3.35 0 0 1 3.11-2.141h85.921a3.35 3.35 0 0 1 3.13 2.14z" class="primary"/><path fill="none" stroke="#393346" stroke-width=".96" d="M275.125 129.73h97.754a3.36 3.36 0 0 1 3.36 3.36v205.594a3.36 3.36 0 0 1-3.36 3.36H57.372a3.36 3.36 0 0 1-3.36-3.36V133.09a3.36 3.36 0 0 1 3.36-3.36h94.89l15.783-39.448a3.35 3.35 0 0 1 3.11-2.141h85.921a3.35 3.35 0 0 1 3.13 2.14z" class="primary"/></g><path fill="#393346" fill-opacity=".5" d="m25.08-22.312-1 2.23L8.57 21.01h-33.65l15.53-41.092a3.49 3.49 0 0 1 3.25-2.23z" class="primary" style="mix-blend-mode:multiply;display:block" transform="matrix(.96 0 0 .96 178.05 109.431)"/><g opacity=".5"><path fill="#393346" d="M-46.452-69.519A83.6 83.6 0 0 1 0-83.61 83.707 83.707 0 0 1 83.61-.01 83.61 83.61 0 1 1-46.452-69.519" class="primary" opacity="1" style="mix-blend-mode:multiply;display:block" transform="matrix(.95 0 0 .95 201.77 249.279)"/></g><g opacity=".5"><g opacity="1" style="mix-blend-mode:multiply;display:block"><path fill="#393346" d="M86.656 130.57v210.377H57.712a3.36 3.36 0 0 1-3.36-3.36V133.93a3.36 3.36 0 0 1 3.36-3.36z" class="primary"/><path fill="none" stroke="#393346" stroke-width=".96" d="M86.656 130.57v210.377H57.712a3.36 3.36 0 0 1-3.36-3.36V133.93a3.36 3.36 0 0 1 3.36-3.36z" class="primary"/></g></g><g opacity=".5" style="mix-blend-mode:multiply;display:block"><g mask="url(#o)" opacity="1"><path fill="#393346" d="M158.478 180.382a80.27 80.27 0 0 1 44.593-13.528 80.344 80.344 0 0 1 80.267 80.267 80.27 80.27 0 0 1-49.55 74.156 80.267 80.267 0 0 1-75.31-140.895" class="primary"/><path fill="none" stroke="#393346" stroke-width=".96" d="M158.478 180.382a80.27 80.27 0 0 1 44.593-13.528 80.344 80.344 0 0 1 80.267 80.267 80.27 80.27 0 0 1-49.55 74.156 80.267 80.267 0 0 1-75.31-140.895z" class="primary"/></g></g><path class="primary" style="display:none"/><path fill="#636D78" d="M-46.452-69.519A83.6 83.6 0 0 1 0-83.61 83.707 83.707 0 0 1 83.61-.01 83.61 83.61 0 1 1-46.452-69.519" class="quinary" style="display:block" transform="matrix(.95 0 0 .95 215.251 235.759)"/><path fill="#EBE6EE" d="M-32.223-48.225A58 58 0 0 1 0-58 58.06 58.06 0 0 1 58 0a58.002 58.002 0 0 1-99.012 41.012 58 58 0 0 1-12.573-63.208 58 58 0 0 1 21.362-26.029" class="quaternary" style="display:block" transform="translate(215.5 235.749)scale(.92999)"/><g opacity=".5"><path fill="#EBE6EE" d="M-5.75 34.905a55.23 55.23 0 0 0 34.315 11.936 55.1 55.1 0 0 0 19.74-3.7 58 58 0 1 1-44.32-101A55.23 55.23 0 0 0-25.226 4.234 55.23 55.23 0 0 0-5.75 34.905" class="quaternary" opacity="1" style="mix-blend-mode:multiply;display:block" transform="translate(206.405 235.91)scale(.92999)"/></g><g fill="none" style="display:block"><path d="M350.962 163.757c0 9.056-7.341 16.397-16.397 16.397s-16.4-7.341-16.4-16.397 7.345-16.397 16.4-16.397 16.397 7.342 16.397 16.397" class="secondary"/><path stroke="#07A889" stroke-linecap="round" stroke-linejoin="round" stroke-width="8.053" d="M350.962 163.757c0 9.056-7.341 16.397-16.397 16.397s-16.4-7.341-16.4-16.397 7.345-16.397 16.4-16.397 16.397 7.342 16.397 16.397" class="secondary"/></g><g opacity="0"><g opacity="1" style="display:block"><path fill="#07A889" d="M193.006 38.942c-98.657-5.17-182.891 72.05-188.154 172.467-5.262 100.417 70.439 186.02 169.095 191.19s182.89-72.05 188.153-172.467-70.438-186.02-169.094-191.19" class="secondary"/><path fill="none" stroke="#07A889" stroke-linecap="round" stroke-linejoin="round" stroke-width="3.85" d="M0-22.75c-8.837 0-16 10.186-16 22.75s7.163 22.75 16 22.75S16 12.564 16 0 8.837-22.75 0-22.75" class="secondary" transform="matrix(11.164 .58508 -.41887 7.99247 183.476 220.77)"/></g></g></g><g clip-path="url(#p)" style="display:none"><path class="tertiary" style="display:none"/><path class="tertiary" style="mix-blend-mode:multiply;display:none"/><g style="display:none"><path class="primary"/><path fill="none" class="primary"/></g><path class="primary" style="mix-blend-mode:multiply;display:none"/><g style="mix-blend-mode:multiply;display:none"><path class="primary"/><path fill="none" class="primary"/></g><g style="display:none"><path class="secondary"/><path fill="none" class="secondary"/></g><g style="mix-blend-mode:multiply;display:none"><path class="primary"/><path fill="none" class="primary"/></g><path class="quinary" style="display:none"/><path class="quaternary" style="display:none"/><path class="quaternary" style="mix-blend-mode:multiply;display:none"/></g></g></svg>